<svg class="svg-icon" style="vertical-align: middle;fill: currentColor;overflow: hidden;" viewBox="0 0 1024 1024" version="1.1" xmlns="http://www.w3.org/2000/svg">
  <path d="M564.365537 208.373814c26.087874 43.59881 41.104754 94.147954 41.104754 148.067183 0 164.283912-138.660323 297.501487-309.656528 297.501487A321.037403 321.037403 0 0 1 227.853403 646.675837c50.750727 110.049441 165.296117 186.82049 298.585533 186.82049C706.753005 833.496327 852.975916 693.012105 852.975916 519.777039c0-160.808746-126.164306-293.394764-288.610379-311.403225z" fill="#000000" />
  <path d="M360.487673 529.931259l-35.215949 19.418471 6.80129-41.285965-28.446828-29.293905 39.367707-5.858781 17.461613-37.080595v-0.139393l0.032167 0.069696 0.032168-0.069696v0.139393l17.396205 37.080595 39.368779 5.858781-28.382492 29.293905 6.80129 41.285965-35.21595-19.418471zM256.317386 292.903673l-52.82446 29.128779 10.202471-61.928946L171.024084 216.162647l59.053168-8.788172 26.190811-55.620892v-0.209089l0.049323 0.105081 0.049324-0.105081v0.209089l26.092163 55.620892L341.512042 216.162647l-42.572666 43.940859 10.201399 61.928946-52.823389-29.128779z" fill="#000000" />
</svg>
